<?xml version="1.0" encoding="UTF-8" ?>
<!DOCTYPE svg PUBLIC "-//W3C//DTD SVG 1.1//EN" "http://www.w3.org/Graphics/SVG/1.1/DTD/svg11.dtd">
<svg width="512pt" height="512pt" viewBox="0 0 512 512" version="1.1" xmlns="http://www.w3.org/2000/svg">
<g id="#ffffffff">
<path fill="#ffffff" opacity="1.00" d=" M 0.00 506.24 C 2.00 508.25 4.03 510.25 6.27 512.00 L 0.00 512.00 L 0.00 506.24 Z" />
<path fill="#ffffff" opacity="1.00" d=" M 505.73 512.00 C 507.97 510.25 510.00 508.25 512.00 506.24 L 512.00 512.00 L 505.73 512.00 Z" />
</g>
<g id="#b8bbbfff">
<path fill="#b8bbbf" opacity="1.00" d=" M 97.88 0.00 L 485.12 0.00 C 487.31 2.36 490.30 4.41 491.29 7.61 C 491.90 12.71 492.18 17.83 492.13 22.98 C 491.88 100.43 492.01 177.89 492.03 255.35 C 499.00 255.48 507.88 254.98 512.00 261.92 L 512.00 301.22 C 508.50 304.71 504.33 308.35 499.05 308.05 C 412.36 308.04 325.67 307.88 238.97 308.10 C 232.52 307.40 225.23 309.03 219.34 305.66 C 213.31 302.12 213.22 291.94 219.30 288.35 C 224.21 285.07 230.44 286.30 235.97 285.87 C 320.98 286.12 405.99 285.96 490.99 285.99 C 491.03 283.01 490.93 279.96 491.00 277.02 C 404.99 276.96 318.97 277.01 232.96 277.03 C 228.31 276.29 222.45 277.97 218.72 274.26 C 213.76 270.77 213.62 262.84 217.63 258.62 C 221.35 254.87 227.29 256.56 231.96 255.90 C 266.96 255.92 301.96 256.11 336.96 255.98 C 336.99 242.32 336.99 228.67 337.04 215.01 C 367.99 214.98 398.94 214.94 429.89 215.04 C 433.64 221.73 437.25 228.49 440.79 235.29 C 437.17 242.19 433.55 249.09 430.00 256.02 C 443.66 256.01 457.32 256.00 470.98 255.99 C 471.02 177.66 471.00 99.34 471.00 21.01 C 351.81 21.00 232.62 20.97 113.43 21.03 C 112.93 26.01 113.09 31.12 111.82 35.98 C 108.54 42.08 98.63 43.15 94.21 37.80 C 90.89 33.29 92.16 27.19 91.68 22.00 C 91.90 14.49 90.40 4.62 97.88 0.00 Z" />
<path fill="#b8bbbf" opacity="1.00" d=" M 63.03 97.01 C 69.24 70.42 95.52 49.73 123.00 51.04 C 150.78 49.87 177.06 71.14 183.08 98.03 C 189.85 123.03 178.14 151.64 155.91 164.88 C 149.50 169.25 142.00 171.42 134.78 174.04 C 147.36 173.98 160.10 174.27 172.47 171.61 C 188.73 168.01 205.04 164.69 221.39 161.51 C 225.80 160.34 230.93 159.79 233.93 155.96 C 242.04 145.71 249.83 135.20 257.95 124.95 C 266.04 114.79 272.82 103.24 283.63 95.61 C 296.94 88.07 316.42 92.26 323.98 106.02 C 330.62 116.69 328.90 131.42 320.98 140.97 C 305.94 160.89 290.39 180.43 275.52 200.49 C 269.65 208.35 262.37 215.68 252.83 218.80 C 237.00 224.81 220.94 230.24 205.08 236.18 C 205.06 266.81 204.58 297.45 205.42 328.07 C 212.48 330.35 219.39 333.32 225.61 337.40 C 237.54 346.87 246.26 361.45 245.94 377.02 C 247.21 392.38 239.90 406.94 229.30 417.58 C 239.80 424.24 248.96 432.85 256.25 442.94 C 262.69 432.34 272.40 424.30 282.71 417.65 C 278.73 413.10 274.80 408.47 271.83 403.19 C 262.50 386.02 264.35 363.58 275.91 347.92 C 286.85 333.43 305.88 324.87 323.99 327.83 C 349.67 330.28 371.19 355.01 368.84 380.93 C 368.95 394.97 361.58 407.74 352.33 417.80 C 362.77 424.12 371.80 432.67 378.63 442.79 C 385.92 432.75 395.06 424.15 405.61 417.61 C 399.92 410.98 394.32 403.96 391.25 395.70 C 389.05 387.77 388.31 379.38 389.40 371.22 C 391.73 349.77 409.87 331.30 431.13 328.17 C 452.59 323.90 476.44 335.09 485.99 354.99 C 492.87 366.87 493.08 381.47 489.61 394.46 C 486.72 403.20 481.03 410.69 475.38 417.83 C 494.56 428.97 508.28 448.43 512.00 470.35 L 512.00 506.24 C 510.00 508.25 507.97 510.25 505.73 512.00 L 6.27 512.00 C 4.03 510.25 2.00 508.25 0.00 506.24 L 0.00 470.44 C 2.40 460.57 5.30 450.57 11.04 442.06 C 17.38 431.89 26.90 424.30 36.74 417.74 C 31.21 411.18 25.67 404.29 23.06 395.96 C 17.59 382.06 19.99 365.92 26.99 353.01 C 31.96 343.17 41.42 336.65 50.67 331.20 C 51.68 293.15 50.31 255.09 51.26 217.05 C 51.27 202.28 58.68 187.10 72.17 180.26 C 83.60 172.42 98.15 174.05 111.22 173.76 C 95.80 169.84 80.92 161.51 72.11 147.91 C 61.72 133.35 58.11 114.28 63.03 97.01 M 118.42 72.49 C 102.56 74.33 88.03 86.48 84.03 101.99 C 79.22 117.17 85.56 134.43 97.98 144.01 C 110.47 154.79 130.20 156.08 143.92 146.87 C 161.17 136.74 168.81 112.87 159.03 94.99 C 151.82 80.15 134.99 70.21 118.42 72.49 M 291.45 117.41 C 277.24 135.56 263.16 153.82 249.06 172.07 C 245.59 176.28 241.15 180.08 235.42 180.47 C 212.56 185.17 189.74 190.10 166.86 194.68 C 144.27 195.85 121.62 194.25 99.01 195.17 C 92.10 195.33 84.82 196.86 79.41 201.43 C 71.18 209.34 72.31 221.63 71.92 231.99 C 72.06 263.55 71.91 295.11 72.07 326.67 C 81.31 328.36 91.11 329.43 98.95 335.07 C 116.67 345.44 126.39 367.41 122.48 387.57 C 121.40 399.48 114.03 409.23 106.17 417.66 C 117.14 423.73 126.10 432.69 133.25 442.91 C 139.94 432.50 149.28 424.07 159.89 417.77 C 148.26 405.96 140.53 389.26 143.43 372.41 C 145.48 350.64 163.11 332.88 183.99 327.95 C 184.18 295.62 183.76 263.28 184.05 230.95 C 183.06 225.23 186.49 219.64 191.87 217.90 C 209.60 211.10 227.68 205.25 245.41 198.48 C 251.38 196.24 255.14 190.74 259.03 186.01 C 273.24 167.25 287.65 148.65 302.07 130.04 C 305.20 126.66 307.27 122.08 305.80 117.37 C 302.72 112.34 294.42 111.85 291.45 117.41 M 65.45 349.57 C 51.53 352.27 40.02 366.58 42.12 380.96 C 41.93 396.37 56.93 409.39 72.00 408.69 C 88.95 409.34 103.94 392.31 101.41 375.62 C 100.08 358.72 82.10 345.31 65.45 349.57 M 188.44 349.56 C 172.44 352.41 160.73 370.59 165.60 386.34 C 169.35 402.87 189.03 413.75 204.89 406.94 C 218.81 402.06 228.15 385.77 223.55 371.42 C 219.90 356.50 203.66 345.72 188.44 349.56 M 311.45 349.58 C 300.80 351.19 292.21 359.92 288.80 369.87 C 283.80 383.69 291.59 400.31 305.00 405.98 C 311.95 409.71 320.60 409.77 327.89 406.95 C 341.80 402.22 350.55 385.82 346.50 371.63 C 343.01 356.78 326.67 345.58 311.45 349.58 M 434.45 349.59 C 418.11 352.13 406.38 370.71 411.39 386.61 C 415.24 401.45 431.88 412.44 447.04 408.05 C 460.75 405.15 471.99 391.27 469.87 377.04 C 470.05 359.66 451.33 345.12 434.45 349.59 M 25.98 459.98 C 20.98 469.48 20.96 480.52 20.78 490.98 C 54.56 491.02 88.35 491.00 122.14 491.00 C 121.88 480.96 122.61 470.24 117.97 461.01 C 109.68 442.05 88.89 428.72 68.03 431.04 C 50.06 431.78 33.30 443.67 25.98 459.98 M 157.78 446.77 C 146.45 458.37 142.55 475.18 143.81 490.99 C 177.59 491.02 211.37 491.01 245.15 491.00 C 245.18 479.49 244.91 467.28 238.95 457.06 C 233.39 446.55 223.71 438.68 212.88 434.08 C 194.14 426.64 171.24 431.64 157.78 446.77 M 272.12 459.06 C 266.75 468.73 266.80 480.24 266.80 490.99 C 300.59 491.02 334.39 491.01 368.18 491.00 C 368.09 479.73 367.79 467.89 362.17 457.80 C 353.67 441.98 336.30 430.20 318.00 430.93 C 298.83 429.91 280.47 442.15 272.12 459.06 M 396.09 457.06 C 389.71 467.12 389.49 479.48 389.84 490.99 C 423.63 491.01 457.42 491.03 491.21 490.98 C 490.95 479.86 490.83 467.89 485.03 457.99 C 478.04 444.33 464.53 434.24 449.44 431.47 C 428.50 427.44 406.03 438.25 396.09 457.06 Z" />
</g>
</svg>
