<?xml version="1.0" encoding="UTF-8" ?>
<!DOCTYPE svg PUBLIC "-//W3C//DTD SVG 1.1//EN" "http://www.w3.org/Graphics/SVG/1.1/DTD/svg11.dtd">
<svg width="100pt" height="100pt" viewBox="0 0 100 100" version="1.1" xmlns="http://www.w3.org/2000/svg">
<g id="#b8bbbfff">
<path fill="#b8bbbf" opacity="1.00" d=" M 4.39 0.00 L 83.31 0.00 C 85.94 0.71 88.13 3.03 87.98 5.87 C 88.00 18.60 88.06 31.34 87.95 44.08 C 88.30 46.64 83.70 46.64 84.05 44.08 C 83.91 35.39 84.05 26.69 84.00 18.00 C 57.33 18.00 30.67 18.00 4.00 18.00 C 4.00 38.00 4.00 58.00 4.00 78.00 C 18.01 77.99 32.01 78.02 46.02 77.98 C 47.37 78.12 49.26 77.59 49.93 79.19 C 50.36 80.46 49.55 82.16 48.05 81.95 C 33.37 82.08 18.68 81.94 4.01 82.02 C 2.58 82.14 1.24 81.73 0.00 81.06 L 0.00 4.62 C 0.62 2.42 2.29 0.81 4.39 0.00 M 4.00 14.00 C 30.67 14.00 57.33 14.00 84.00 14.00 C 83.96 10.99 84.11 7.98 83.94 4.98 C 83.14 3.47 81.30 4.14 79.94 3.98 C 54.95 4.07 29.96 3.91 4.97 4.06 C 2.80 6.65 4.55 10.79 4.00 14.00 Z" />
<path fill="#b8bbbf" opacity="1.00" d=" M 14.00 30.00 C 16.67 30.00 19.33 30.00 22.00 30.00 C 22.00 31.33 22.00 32.67 22.00 34.00 C 19.33 34.00 16.67 34.00 14.00 34.00 C 14.00 32.67 14.00 31.33 14.00 30.00 Z" />
<path fill="#b8bbbf" opacity="1.00" d=" M 28.00 30.00 C 43.33 30.00 58.67 30.00 74.00 30.00 C 74.00 31.33 74.00 32.67 74.00 34.00 C 58.67 34.00 43.33 34.00 28.00 34.00 C 28.00 32.67 28.00 31.33 28.00 30.00 Z" />
<path fill="#b8bbbf" opacity="1.00" d=" M 14.00 40.00 C 16.67 40.00 19.33 40.00 22.00 40.00 C 22.00 41.33 22.00 42.67 22.00 44.00 C 19.33 44.00 16.67 44.00 14.00 44.00 C 14.00 42.67 14.00 41.33 14.00 40.00 Z" />
<path fill="#b8bbbf" opacity="1.00" d=" M 28.00 40.00 C 43.33 40.00 58.67 40.00 74.00 40.00 C 74.00 41.33 74.00 42.67 74.00 44.00 C 58.67 44.00 43.33 44.00 28.00 44.00 C 28.00 42.67 28.00 41.33 28.00 40.00 Z" />
<path fill="#b8bbbf" opacity="1.00" d=" M 14.00 50.00 C 16.67 50.00 19.33 50.00 22.00 50.00 C 22.00 51.33 22.00 52.67 22.00 54.00 C 19.33 54.00 16.67 54.00 14.00 54.00 C 14.00 52.67 14.00 51.33 14.00 50.00 Z" />
<path fill="#b8bbbf" opacity="1.00" d=" M 28.00 50.00 C 43.33 50.00 58.67 50.00 74.00 50.00 C 74.00 51.33 74.00 52.66 74.00 54.00 C 58.67 54.00 43.33 54.00 28.00 54.00 C 28.00 52.67 28.00 51.33 28.00 50.00 Z" />
<path fill="#b8bbbf" opacity="1.00" d=" M 82.19 56.17 C 84.56 53.90 86.55 50.69 90.01 50.05 C 94.44 48.89 99.10 52.15 100.00 56.54 L 100.00 59.29 C 99.35 62.40 96.99 64.63 94.85 66.79 C 85.02 76.64 75.02 86.32 65.15 96.13 C 61.13 98.10 56.49 98.58 52.24 100.00 L 50.80 100.00 C 50.52 99.54 49.97 98.61 49.69 98.15 C 51.79 92.60 51.56 85.57 56.67 81.67 C 65.21 73.20 73.70 64.68 82.19 56.17 M 56.89 87.21 C 58.77 89.26 60.82 91.13 62.89 92.98 C 73.11 82.82 83.21 72.55 93.49 62.47 C 91.60 60.41 89.61 58.47 87.64 56.50 C 77.38 66.73 67.17 77.00 56.89 87.21 Z" />
<path fill="#b8bbbf" opacity="1.00" d=" M 14.00 60.00 C 16.67 60.00 19.33 60.00 22.00 60.00 C 22.00 61.33 22.00 62.67 22.00 64.00 C 19.33 64.00 16.67 64.00 14.00 64.00 C 14.00 62.67 14.00 61.33 14.00 60.00 Z" />
<path fill="#b8bbbf" opacity="1.00" d=" M 28.00 60.00 C 40.67 60.00 53.33 60.00 66.00 60.00 C 66.00 61.33 66.00 62.67 66.00 64.00 C 53.33 64.00 40.67 64.00 28.00 64.00 C 28.00 62.67 28.00 61.33 28.00 60.00 Z" />
</g>
</svg>
