<svg xmlns="http://www.w3.org/2000/svg" width="20" height="20" viewBox="0 0 50 50" style="fill: rgb(184, 187, 191);">
    <path style="text-indent:0;text-align:start;line-height:normal;text-transform:none;block-progression:tb;-inkscape-font-specification:Bitstream Vera Sans" d="M 1.71875 2.78125 A 1.0001 1.0001 0 0 0 0.9375 3.78125 L 0.9375 39.46875 C 0.9375 43.714874 3.1457385 46.109471 5.3125 47.1875 C 7.4792615 48.265529 9.625 48.21875 9.625 48.21875 L 38.46875 48.21875 L 40.375 48.21875 L 40.375 48.125 C 40.85718 48.18022 41.375 48.21875 41.375 48.21875 C 41.375 48.21875 43.29582 48.22942 45.21875 47.125 C 47.095514 46.047095 48.942313 43.767185 49.03125 39.8125 A 1.0001 1.0001 0 0 0 49.0625 39.75 C 49.062874 39.728432 49.062232 39.709168 49.0625 39.6875 A 1.0001 1.0001 0 0 0 49.0625 39.53125 L 49.0625 14.4375 A 1.0001 1.0001 0 0 0 49.0625 14.40625 C 49.0625 14.40625 49.0763 13.234614 48.46875 12.03125 C 47.861205 10.827886 46.442863 9.53125 44.21875 9.53125 L 44.21875 9.5 L 34.75 9.5 L 34.75 11.5 L 40.3125 11.5 C 40.191457 11.671866 40.088207 11.82762 40 12 C 39.390482 13.191162 39.375 14.375 39.375 14.375 L 39.375 38.625 A 1.0001 1.0001 0 1 0 41.375 38.625 L 41.375 14.40625 L 41.375 14.375 C 41.3763 14.3464 41.41404 13.623883 41.78125 12.90625 C 42.155732 12.174412 42.682071 11.53125 44.21875 11.53125 C 45.750637 11.53125 46.279295 12.190864 46.65625 12.9375 C 47.026093 13.670048 47.092492 14.409051 47.09375 14.4375 L 47.0625 14.4375 L 47.0625 39.53125 C 47.0625 43.088865 45.64182 44.58892 44.21875 45.40625 C 42.79568 46.22358 41.375 46.21875 41.375 46.21875 C 41.375 46.21875 39.685161 46.1952 38 45.34375 C 36.314839 44.492297 34.6875 42.996083 34.6875 39.46875 L 34.6875 3.78125 A 1.0001 1.0001 0 0 0 33.6875 2.78125 L 1.9375 2.78125 A 1.0001 1.0001 0 0 0 1.71875 2.78125 z M 2.9375 4.78125 L 32.6875 4.78125 L 32.6875 39.46875 C 32.6875 42.758212 34.082118 44.908611 35.71875 46.21875 L 9.625 46.21875 A 1.0001 1.0001 0 0 0 9.59375 46.21875 C 9.59375 46.21875 9.1650952 46.223691 8.53125 46.125 C 8.2143274 46.075654 7.8638706 45.990335 7.46875 45.875 C 7.0736294 45.759665 6.6385596 45.615117 6.21875 45.40625 C 6.0088452 45.301816 5.7982634 45.190766 5.59375 45.0625 C 4.1621564 44.164639 2.9375 42.611642 2.9375 39.46875 L 2.9375 4.78125 z M 6.9375 11 A 1.0043849 1.0043849 0 0 0 7.21875 13 L 26.9375 13 A 1.0001 1.0001 0 1 0 26.9375 11 L 7.21875 11 A 1.0001 1.0001 0 0 0 7.125 11 A 1.001098 1.001098 0 0 0 7.03125 11 A 1.0043849 1.0043849 0 0 0 6.9375 11 z M 6.9375 15 A 1.0043849 1.0043849 0 0 0 7.21875 17 L 26.9375 17 A 1.0001 1.0001 0 1 0 26.9375 15 L 7.21875 15 A 1.0001 1.0001 0 0 0 7.125 15 A 1.001098 1.001098 0 0 0 7.03125 15 A 1.0043849 1.0043849 0 0 0 6.9375 15 z M 7.40625 23 A 1.0043849 1.0043849 0 0 0 7.6875 25 L 14.46875 25 A 1.0001 1.0001 0 1 0 14.46875 23 L 7.6875 23 A 1.0001 1.0001 0 0 0 7.59375 23 A 1.001098 1.001098 0 0 0 7.5 23 A 1.0043849 1.0043849 0 0 0 7.40625 23 z M 18.9375 23 A 1.0043849 1.0043849 0 0 0 19.21875 25 L 26.9375 25 A 1.0001 1.0001 0 1 0 26.9375 23 L 19.21875 23 A 1.0001 1.0001 0 0 0 19.125 23 A 1.001098 1.001098 0 0 0 19.03125 23 A 1.0043849 1.0043849 0 0 0 18.9375 23 z M 7.40625 27 A 1.0043849 1.0043849 0 0 0 7.6875 29 L 14.46875 29 A 1.0001 1.0001 0 1 0 14.46875 27 L 7.6875 27 A 1.0001 1.0001 0 0 0 7.59375 27 A 1.001098 1.001098 0 0 0 7.5 27 A 1.0043849 1.0043849 0 0 0 7.40625 27 z M 18.9375 27 A 1.0043849 1.0043849 0 0 0 19.21875 29 L 26.9375 29 A 1.0001 1.0001 0 1 0 26.9375 27 L 19.21875 27 A 1.0001 1.0001 0 0 0 19.125 27 A 1.001098 1.001098 0 0 0 19.03125 27 A 1.0043849 1.0043849 0 0 0 18.9375 27 z M 18.9375 30.78125 A 1.0098393 1.0098393 0 1 0 19.21875 32.78125 L 26.9375 32.78125 A 1.0001 1.0001 0 1 0 26.9375 30.78125 L 19.21875 30.78125 A 1.0001 1.0001 0 0 0 19.03125 30.78125 A 1.0043849 1.0043849 0 0 0 18.9375 30.78125 z M 7.40625 31 A 1.0043849 1.0043849 0 0 0 7.6875 33 L 14.46875 33 A 1.0001 1.0001 0 1 0 14.46875 31 L 7.6875 31 A 1.0001 1.0001 0 0 0 7.59375 31 A 1.001098 1.001098 0 0 0 7.5 31 A 1.0043849 1.0043849 0 0 0 7.40625 31 z M 18.9375 34.78125 A 1.0098393 1.0098393 0 1 0 19.21875 36.78125 L 26.9375 36.78125 A 1.0001 1.0001 0 1 0 26.9375 34.78125 L 19.21875 34.78125 A 1.0001 1.0001 0 0 0 19.03125 34.78125 A 1.0043849 1.0043849 0 0 0 18.9375 34.78125 z M 7.40625 35 A 1.0043849 1.0043849 0 0 0 7.6875 37 L 14.46875 37 A 1.0001 1.0001 0 1 0 14.46875 35 L 7.6875 35 A 1.0001 1.0001 0 0 0 7.59375 35 A 1.001098 1.001098 0 0 0 7.5 35 A 1.0043849 1.0043849 0 0 0 7.40625 35 z M 18.9375 38.53125 A 1.0043849 1.0043849 0 0 0 19.21875 40.53125 L 26.9375 40.53125 A 1.0001 1.0001 0 1 0 26.9375 38.53125 L 19.21875 38.53125 A 1.0001 1.0001 0 0 0 19.125 38.53125 A 1.001098 1.001098 0 0 0 19.03125 38.53125 A 1.0043849 1.0043849 0 0 0 18.9375 38.53125 z M 7.40625 39 A 1.0043849 1.0043849 0 0 0 7.6875 41 L 14.46875 41 A 1.0001 1.0001 0 1 0 14.46875 39 L 7.6875 39 A 1.0001 1.0001 0 0 0 7.59375 39 A 1.001098 1.001098 0 0 0 7.5 39 A 1.0043849 1.0043849 0 0 0 7.40625 39 z"/>
</svg>