<svg xmlns="http://www.w3.org/2000/svg" viewBox="0 0 24 24" enable-background="new 0 0 24 24" width="20" height="20" style="fill: rgb(184, 187, 191);">
    <path d="M 18.03125 0 C 16.88825 0 16.90625 0.09375 16.90625 0.09375 C 16.77025 0.75275 16.62725 1.232 16.53125 1.5 C 15.94825 1.691 15.3975 1.99 14.9375 2.375 C 14.6605 2.32 14.21275 2.18775 13.59375 1.96875 C 13.59375 1.96875 13.5265 1.91125 12.9375 2.90625 C 12.3485 3.90025 12.4375 3.9375 12.4375 3.9375 C 12.8945 4.3665 13.193 4.7135 13.375 4.9375 C 13.296 5.2795 13.25 5.634 13.25 6 C 13.25 6.331 13.27875 6.65675 13.34375 6.96875 C 13.15675 7.18875 12.86925 7.5215 12.40625 7.9375 C 12.40625 7.9375 12.306 7.96275 12.875 8.96875 C 13.443 9.97475 13.53125 9.9375 13.53125 9.9375 C 14.15725 9.7305 14.597 9.6105 14.875 9.5625 C 15.333 9.9635 15.87975 10.298 16.46875 10.5 C 16.56575 10.764 16.70275 11.22325 16.84375 11.90625 C 16.84375 11.90625 16.82575 12 17.96875 12 C 19.11075 12 19.09375 11.90625 19.09375 11.90625 C 19.22975 11.24725 19.37275 10.768 19.46875 10.5 C 20.05175 10.309 20.6025 10.01 21.0625 9.625 C 21.3395 9.68 21.78725 9.81225 22.40625 10.03125 C 22.40625 10.03125 22.4715 10.08775 23.0625 9.09375 C 23.6515 8.09875 23.5625 8.0625 23.5625 8.0625 C 23.1055 7.6335 22.807 7.2865 22.625 7.0625 C 22.703 6.7215 22.75 6.366 22.75 6 C 22.75 5.669 22.72125 5.34325 22.65625 5.03125 C 22.84225 4.81125 23.13175 4.4785 23.59375 4.0625 C 23.59375 4.0625 23.694 4.03725 23.125 3.03125 C 22.557 2.02525 22.46875 2.0625 22.46875 2.0625 C 21.84375 2.2685 21.403 2.3885 21.125 2.4375 C 20.667 2.0365 20.11925 1.702 19.53125 1.5 C 19.43425 1.236 19.29725 0.77775 19.15625 0.09375 C 19.15625 0.09375 19.17325 0 18.03125 0 z M 18 2 C 20.209 2 22 3.791 22 6 C 22 8.209 20.209 10 18 10 C 15.791 10 14 8.209 14 6 C 14 3.791 15.791 2 18 2 z M 18 3 C 16.343 3 15 4.343 15 6 C 15 7.657 16.343 9 18 9 C 19.657 9 21 7.657 21 6 C 21 4.343 19.657 3 18 3 z M 18 4.5 C 18.828 4.5 19.5 5.172 19.5 6 C 19.5 6.828 18.828 7.5 18 7.5 C 17.172 7.5 16.5 6.828 16.5 6 C 16.5 5.172 17.172 4.5 18 4.5 z M 8.03125 8 C 6.50725 8 6.53125 8.15625 6.53125 8.15625 C 6.35025 9.03425 6.16025 9.61275 6.03125 9.96875 C 5.25425 10.22275 4.5495 10.64225 3.9375 11.15625 C 3.5675 11.08325 2.951 10.917 2.125 10.625 C 2.125 10.625 2.035 10.55 1.25 11.875 C 0.464 13.2 0.59375 13.25 0.59375 13.25 C 1.20275 13.822 1.60175 14.29575 1.84375 14.59375 C 1.73875 15.05175 1.65625 15.512 1.65625 16 C 1.65625 16.442 1.7265 16.86525 1.8125 17.28125 C 1.5635 17.57525 1.14725 18.0075 0.53125 18.5625 C 0.53125 18.5625 0.39825 18.62675 1.15625 19.96875 C 1.91325 21.30975 2.03125 21.21875 2.03125 21.21875 C 2.86525 20.94275 3.47275 20.815 3.84375 20.75 C 4.45475 21.285 5.1525 21.69875 5.9375 21.96875 C 6.0665 22.32075 6.28075 22.93275 6.46875 23.84375 C 6.46875 23.84375 6.44375 24 7.96875 24 C 9.49175 24 9.46875 23.84375 9.46875 23.84375 C 9.64975 22.96475 9.83975 22.38825 9.96875 22.03125 C 10.74575 21.77725 11.4495 21.35775 12.0625 20.84375 C 12.4325 20.91675 13.049 21.082 13.875 21.375 C 13.875 21.375 13.963 21.451 14.75 20.125 C 15.535 18.799 15.40625 18.75 15.40625 18.75 C 14.79725 18.178 14.39825 17.70525 14.15625 17.40625 C 14.26025 16.95025 14.34375 16.488 14.34375 16 C 14.34375 15.558 14.2735 15.13475 14.1875 14.71875 C 14.4345 14.42575 14.85275 13.9925 15.46875 13.4375 C 15.46875 13.4375 15.60175 13.37225 14.84375 12.03125 C 14.08675 10.68925 13.96875 10.78125 13.96875 10.78125 C 13.13475 11.05625 12.52725 11.185 12.15625 11.25 C 11.54525 10.715 10.8465 10.30125 10.0625 10.03125 C 9.9335 9.67825 9.7505 9.06725 9.5625 8.15625 C 9.5625 8.15625 9.55425 8 8.03125 8 z M 8 11 C 10.761 11 13 13.239 13 16 C 13 18.761 10.761 21 8 21 C 5.239 21 3 18.761 3 16 C 3 13.239 5.239 11 8 11 z M 8 12 C 5.791 12 4 13.791 4 16 C 4 18.209 5.791 20 8 20 C 10.209 20 12 18.209 12 16 C 12 13.791 10.209 12 8 12 z M 8 14 C 9.105 14 10 14.895 10 16 C 10 17.105 9.105 18 8 18 C 6.895 18 6 17.105 6 16 C 6 14.895 6.895 14 8 14 z"/>
</svg>